<svg xmlns="http://www.w3.org/2000/svg" width="192" height="192" viewBox="0 0 192 192" fill="none">
  <rect width="192" height="192" rx="56" fill="#0F172A"/>
  <path d="M48 132c12-36 40.2-58.4 84.6-67.4M89.4 61.2a12.4 12.4 0 1 0 0-24.8 12.4 12.4 0 0 0 0 24.8Zm-7.5 14.4 18 13.2 17.8 7.2m-35.8-20.4L69.5 106.4m33.9-17.7-6.2 28.5m6.2-28.5 25 18m-47.7 4.9 21.3 8.1" stroke="url(#paint0_linear)" stroke-width="12.5" stroke-linecap="round" stroke-linejoin="round"/>
  <path d="M46.5 147c27-.9 54.6-9 83.5-27.6" stroke="#F8FAFC" stroke-width="8.8" stroke-linecap="round"/>
  <defs>
    <linearGradient id="paint0_linear" x1="48" y1="42" x2="138" y2="136" gradientUnits="userSpaceOnUse">
      <stop stop-color="#FDBA74"/>
      <stop offset="1" stop-color="#F97316"/>
    </linearGradient>
  </defs>
</svg>
